<svg xmlns="http://www.w3.org/2000/svg" xmlns:xlink="http://www.w3.org/1999/xlink" viewBox="0 0 1280 720"><defs><style>.cls-1,.cls-2{fill:none;}.cls-2,.cls-4{stroke:#000;stroke-miterlimit:10;}.cls-2{stroke-width:0.63px;}.cls-3{isolation:isolate;}.cls-4{fill:#f0b138;stroke-width:0.29px;}.cls-5{mix-blend-mode:overlay;fill:url(#Motivo_nuevo_11);}</style><pattern id="Motivo_nuevo_11" data-name="Motivo nuevo 11" width="380.67" height="239.29" patternTransform="translate(0 -23.88)" patternUnits="userSpaceOnUse" viewBox="0 0 380.67 239.29"><rect class="cls-1" width="380.67" height="239.29"/><path class="cls-2" d="M186,126.47a4.55,4.55,0,0,0,3.78-7.61l-10.85-11.8-6.48-7a10.65,10.65,0,0,1-2.38-10.13,41.07,41.07,0,0,0,1.58-11.24C171.66,46.2,133.3,19.9,86,19.9S.32,46.2.32,78.64,38.67,137.39,86,137.39c18.42,0,35.49-4,49.46-10.78a34.22,34.22,0,0,1,18.18-3.23L170.05,125Z"/><path class="cls-2" d="M375.35,206a4.55,4.55,0,0,0,3.79-7.61l-10.85-11.8-6.49-7a10.66,10.66,0,0,1-2.37-10.12A41.19,41.19,0,0,0,361,158.21c0-32.44-38.36-58.74-85.67-58.74s-85.67,26.3-85.67,58.74S228,217,275.33,217c18.43,0,35.49-4,49.47-10.78A34.17,34.17,0,0,1,343,203l16.43,1.57Z"/><path class="cls-2" d="M189.86,80.25A3.42,3.42,0,0,1,187,74.54l8.14-8.85L200,60.4a8,8,0,0,0,1.78-7.59,31,31,0,0,1-1.18-8.43C200.62,20,229.39.32,264.87.32S329.13,20,329.13,44.38s-28.77,44.05-64.26,44.05a85.46,85.46,0,0,1-37.1-8.08,25.51,25.51,0,0,0-13.63-2.42L201.82,79.1Z"/><path class="cls-2" d="M36.58,230.78a3.41,3.41,0,0,1-2.84-5.7l8.14-8.85,4.86-5.29a8,8,0,0,0,1.78-7.6,30.86,30.86,0,0,1-1.17-8.43c0-24.33,28.76-44,64.25-44s64.25,19.72,64.25,44S147.08,239,111.6,239a85.46,85.46,0,0,1-37.1-8.08,25.53,25.53,0,0,0-13.63-2.42l-12.32,1.17Z"/></pattern></defs><g class="cls-3"><g id="fondo"><rect class="cls-4" x="-59.75" y="-81" width="1399.5" height="882"/><rect class="cls-5" x="-59.75" y="-81" width="1399.5" height="882"/></g></g></svg>